<!DOCTYPE svg PUBLIC "-//W3C//DTD SVG 1.1//EN" "http://www.w3.org/Graphics/SVG/1.1/DTD/svg11.dtd">
<!-- Uploaded to: SVG Repo, www.svgrepo.com, Transformed by: SVG Repo Mixer Tools -->
<svg fill="#000000" height="800px" width="800px" version="1.1" id="Layer_1" xmlns="http://www.w3.org/2000/svg" xmlns:xlink="http://www.w3.org/1999/xlink" viewBox="-66.56 -66.56 645.12 645.12" xml:space="preserve">
<g id="SVGRepo_bgCarrier" stroke-width="0"/>
<g id="SVGRepo_tracerCarrier" stroke-linecap="round" stroke-linejoin="round"/>
<g id="SVGRepo_iconCarrier"> <g> <g> <path d="M148.693,31.886C143.709,9.853,121.807-3.967,99.775,1.017C86.192,4.089,75.738,13.595,70.88,25.595 c21.336-8.833,46.482-1.334,59.052,19.238c4.809,7.871,7.183,16.755,7.008,25.759C147.047,60.992,151.993,46.469,148.693,31.886z"/> </g> </g> <g> <g> <path d="M119.471,51.224c-10.239-16.758-32.12-22.036-48.871-11.8C52.25,50.636,47.878,75.58,61.725,92.391 c3.598-0.739,7.386-0.848,11.225-0.205l37.211,6.229C124.92,87.61,129.181,67.115,119.471,51.224z"/> </g> </g> <g> <g> <polygon points="137.109,148.083 124.983,160.016 128.96,161.69 140.194,153.132 "/> </g> </g> <g> <g> <path d="M201.829,218.294l14.485-30.34l-49.7,37.866l13.325,44.354c2.859,9.514,12.886,14.872,22.351,12.023 c9.492-2.852,14.875-12.858,12.023-22.35L201.829,218.294z"/> </g> </g> <g> <g> <path d="M233.641,128.349c-6.654-8.732-19.126-10.417-27.858-3.767l-70.315,53.569l-22.265-17.075 c-6.601-1.106-42.649-7.141-50.375-8.435c-11.387-1.907-20.371-9.925-23.935-20.279c-0.748,3.396-0.916,6.979-0.4,10.625 L62.56,294.692l21.666,91.072l-24.873,96.418c-3.291,12.757,4.382,25.765,17.139,29.055c12.768,3.296,25.768-4.394,29.055-17.138 l26.351-102.145c0.971-3.761,1.008-7.701,0.108-11.479l-22.003-92.492l10.882-1.539l45.305,70.06l10.202,133.452 c1.008,13.186,12.529,22.979,25.602,21.966c13.135-1.003,22.97-12.467,21.966-25.602l-10.663-139.496 c-0.303-3.968-1.594-7.795-3.754-11.135c-4.415-6.827-39.208-60.632-43.296-66.954l-10.424-34.692l-4.48,3.414 c-11.958,9.11-29.11,6.913-38.375-4.993l-41.371-53.196l51.739,39.678c7.109,5.451,16.996,5.481,24.142,0.038l82.4-62.777 C238.608,149.553,240.295,137.081,233.641,128.349z"/> </g> </g> <g> <g> <path d="M184.389,90.827c-8.342-13.655-26.175-17.956-39.824-9.617c-6.149,3.758-10.394,9.442-12.449,15.8l6.623-1.287 l-27.922,15.681l-39.965-6.69c-9.777-1.647-19.026,4.959-20.663,14.736c-1.637,9.776,4.961,19.027,14.736,20.663l52.439,8.78 l38.951-21.876l-10.604,11.633l4.286,7.015c49.784-37.928,45.185-34.44,46.345-35.274L184.389,90.827z"/> </g> </g> <g> <g> <path d="M414.669,364.538v124.128h-0.001c0,6.057-1.457,11.776-4.022,16.841c4.159,3.982,9.778,6.456,15.99,6.491 c0.043,0,0.086,0,0.129,0c12.827,0,23.26-10.364,23.33-23.206l0.674-124.453L414.669,364.538z"/> </g> </g> <g> <g> <path d="M353.931,364.873v123.794h0.001c0,12.887,10.446,23.333,23.332,23.333s23.332-10.446,23.332-23.333v-124.05 C380.199,364.729,385.373,364.701,353.931,364.873z"/> </g> </g> <g> <g> <path d="M473.6,333.324l-31.408-165.196c-4.322-22.731-20.597-40.653-41.553-47.741c-2.738,8.772-7.591,16.779-14.19,23.549 c-3.43,3.52-37.173,25.33-37.173,25.33l-20.419-42.792c-4.344-9.103-15.245-12.958-24.345-8.616 c-9.102,4.343-12.961,15.243-8.617,24.346l29.492,61.807c4.776,10.006,17.343,13.503,26.606,7.332l54.498-36.309l-44.372,51.506 c-7.554,8.769-19.109,12.043-29.63,9.464l-17.408,98.193c-1.185,6.681,3.556,12.857,9.815,12.857c0.017,0,0.033,0,0.05,0 c30.328-0.166,108.58-0.599,138.928-0.766C470.136,346.254,474.861,340.008,473.6,333.324z"/> </g> </g> <g> <g> <path d="M345.021,62.66c-0.076,0-0.15,0-0.226,0c-20.698,0.115-37.658,15.817-39.831,35.917 c16.089-3.348,32.982,4.539,40.376,20.034l10.986,23.022c16.831-4.913,29.089-20.493,28.988-38.898 C385.191,80.556,367.172,62.66,345.021,62.66z"/> </g> </g> </g>
</svg>